#N canvas 348 190 787 529 16;
#X obj 114 18 r trigger;
#X obj 115 61 bng 15 250 50 0 empty empty empty 17 7 0 10 -262144 -1
-1;
#X msg 112 100 1 10 \, 0 1000 10;
#X obj 113 149 vline~;
#X obj 112 190 *~;
#X obj 112 228 dac~;
#X obj 282 24 r midinote;
#X floatatom 282 65 5 0 0 0 - - -, f 5;
#X obj 282 102 mtof;
#X obj 281 145 osc~ 220;
#X obj 279 192 adc~;
#X obj 280 233 fiddle~ 4096;
#X floatatom 278 267 5 0 0 0 - - -, f 5;
#X obj 279 352 s pitch;
#X obj 278 300 mtof;
#X floatatom 203 356 5 0 0 0 - - -, f 5;
#X connect 0 0 1 0;
#X connect 1 0 2 0;
#X connect 2 0 3 0;
#X connect 3 0 4 0;
#X connect 4 0 5 0;
#X connect 4 0 5 1;
#X connect 6 0 7 0;
#X connect 7 0 8 0;
#X connect 8 0 9 0;
#X connect 9 0 4 1;
#X connect 10 0 11 0;
#X connect 11 0 12 0;
#X connect 12 0 14 0;
#X connect 14 0 13 0;
#X connect 14 0 15 0;
